<?xml version="1.0" encoding="UTF-8" standalone="no"?>
<svg
   xmlns:dc="http://purl.org/dc/elements/1.1/"
   xmlns:cc="http://creativecommons.org/ns#"
   xmlns:rdf="http://www.w3.org/1999/02/22-rdf-syntax-ns#"
   xmlns:svg="http://www.w3.org/2000/svg"
   xmlns="http://www.w3.org/2000/svg"
   xmlns:sodipodi="http://sodipodi.sourceforge.net/DTD/sodipodi-0.dtd"
   xmlns:inkscape="http://www.inkscape.org/namespaces/inkscape"
   width="210mm"
   height="297mm"
   viewBox="0 0 210 297"
   version="1.1"
   id="svg8"
   inkscape:version="1.0.1 (3bc2e813f5, 2020-09-07)"
   sodipodi:docname="PDF_DarkMode_logo.svg">
  <defs
     id="defs2" />
  <sodipodi:namedview
     id="base"
     pagecolor="#ffffff"
     bordercolor="#666666"
     borderopacity="1.0"
     inkscape:pageopacity="0.0"
     inkscape:pageshadow="2"
     inkscape:zoom="0.7"
     inkscape:cx="330.02369"
     inkscape:cy="684.00744"
     inkscape:document-units="mm"
     inkscape:current-layer="layer1"
     inkscape:document-rotation="0"
     showgrid="false"
     inkscape:window-width="1080"
     inkscape:window-height="1883"
     inkscape:window-x="0"
     inkscape:window-y="0"
     inkscape:window-maximized="1" />
  <metadata
     id="metadata5">
    <rdf:RDF>
      <cc:Work
         rdf:about="">
        <dc:format>image/svg+xml</dc:format>
        <dc:type
           rdf:resource="http://purl.org/dc/dcmitype/StillImage" />
        <dc:title></dc:title>
      </cc:Work>
    </rdf:RDF>
  </metadata>
  <g
     inkscape:label="Layer 1"
     inkscape:groupmode="layer"
     id="layer1">
    <path
       style="fill:#e6e6e6;stroke:none;stroke-width:0.215399"
       d="M 21.812099,43.093823 21.437931,268.03366 H 185.52045 c 0,-34.67184 0.29457,-73.08189 0.29457,-107.77247 v -29.57403 c 0,-5.11022 0.68191,-10.96226 -1.12089,-15.80293 -0.7822,-2.10043 -2.60597,-3.79789 -4.00903,-5.41814 -1.97009,-2.27472 -3.85448,-4.65012 -5.75223,-6.99843 -7.53119,-9.319213 -15.19905,-18.505453 -22.78799,-27.76799 -6.16758,-7.52761 -12.24144,-15.16591 -18.52617,-22.575606 -2.47504,-2.918077 -4.53059,-6.964639 -8.07104,-8.374305 -2.70913,-1.078662 -7.14979,-0.655936 -10.01963,-0.655936 H 94.154257 21.812099 M 34.554184,253.94994 V 107.43429 69.73303 60.02553 c 0,-0.93129 -0.272483,-2.693919 0.280359,-3.460699 0.540305,-0.74944 2.435349,-0.602911 3.213438,-0.602911 h 9.453805 38.431771 23.634513 c 3.36802,0 7.91037,-0.86641 11.09794,0.44054 2.30694,0.94594 3.75152,3.05515 5.36113,4.9776 2.93007,3.50012 5.86321,7.01988 8.7012,10.61053 8.69956,11.006057 17.78754,21.673937 26.66487,32.50887 3.67753,4.48848 9.4947,9.42847 11.11028,15.35141 0.6967,2.55375 0.36397,5.48993 0.36397,8.12721 v 15.12566 49.66632 46.05423 11.2878 c 0,0.88903 0.37589,3.21793 -0.32945,3.83153 -0.57175,0.49734 -1.86384,0.23208 -2.5478,0.23208 h -6.78208 -26.30623 c -34.11344,0 -68.252158,-0.22576 -102.347716,-0.22576 M 47.707303,76.505707 V 154.61729 H 156.22054 V 140.16891 H 103.19703 V 76.505707 H 47.707303 m 71.931127,6.77268 v 27.090723 6.54693 l 0.32944,2.47699 2.13677,0.23208 h 5.75449 21.78485 c -1.36957,-3.22583 -4.79328,-6.14711 -6.95348,-8.80448 -4.97661,-6.12205 -9.96143,-12.244783 -15.01922,-18.286243 -2.29172,-2.73729 -4.95831,-7.67661 -8.03285,-9.256 M 99.497712,169.74295 c 0,2.24762 0.49242,5.30617 -0.143657,7.44995 -1.090886,3.67621 -3.785906,7.44672 -5.707289,10.67977 -0.959972,1.61551 -2.741843,4.72334 -4.44435,5.44824 -1.552891,0.66101 -4.077159,0.57793 -5.735068,0.57793 H 60.654906 c -1.109384,0 -3.065088,0.4102 -4.043557,-0.23208 -1.217897,-0.7994 -2.103677,-3.01113 -2.875601,-4.28304 -1.925082,-3.1721 -3.881814,-6.32117 -5.822927,-9.48175 H 47.707303 V 233.6319 H 156.22054 v -53.72993 h -0.20552 c -2.03298,3.31026 -4.02588,6.66003 -6.10798,9.93326 -0.70862,1.11411 -1.51795,3.12469 -2.59075,3.83153 -0.9758,0.64341 -2.93582,0.23208 -4.04335,0.23208 h -23.01796 c -1.61023,0 -4.18384,0.34148 -5.67549,-0.34595 -1.53377,-0.70707 -3.42481,-3.99947 -4.32313,-5.51091 -1.85561,-3.12221 -4.78426,-7.27379 -5.72142,-10.84908 -0.57339,-2.18781 -0.10481,-5.17614 -0.10481,-7.44995 z"
       id="path877"
       sodipodi:nodetypes="cccssccscssscccccscsccscccscscccssscsccccccccccccccccccccccssscccccccccssccccc" />
  </g>
</svg>
