<?xml version="1.0" encoding="UTF-8" standalone="no"?>
<svg
   xmlns:dc="http://purl.org/dc/elements/1.1/"
   xmlns:cc="http://creativecommons.org/ns#"
   xmlns:rdf="http://www.w3.org/1999/02/22-rdf-syntax-ns#"
   xmlns:svg="http://www.w3.org/2000/svg"
   xmlns="http://www.w3.org/2000/svg"
   xmlns:sodipodi="http://sodipodi.sourceforge.net/DTD/sodipodi-0.dtd"
   xmlns:inkscape="http://www.inkscape.org/namespaces/inkscape"
   width="210mm"
   height="297mm"
   viewBox="0 0 210 297"
   version="1.1"
   id="svg8"
   inkscape:version="1.0.1 (3bc2e813f5, 2020-09-07)"
   sodipodi:docname="PDF_DarkMode_logo2.svg">
  <defs
     id="defs2" />
  <sodipodi:namedview
     id="base"
     pagecolor="#ffffff"
     bordercolor="#666666"
     borderopacity="1.0"
     inkscape:pageopacity="0.0"
     inkscape:pageshadow="2"
     inkscape:zoom="1.4"
     inkscape:cx="371.6279"
     inkscape:cy="504.08302"
     inkscape:document-units="mm"
     inkscape:current-layer="layer1"
     inkscape:document-rotation="0"
     showgrid="false"
     inkscape:window-width="1080"
     inkscape:window-height="1883"
     inkscape:window-x="0"
     inkscape:window-y="0"
     inkscape:window-maximized="1" />
  <metadata
     id="metadata5">
    <rdf:RDF>
      <cc:Work
         rdf:about="">
        <dc:format>image/svg+xml</dc:format>
        <dc:type
           rdf:resource="http://purl.org/dc/dcmitype/StillImage" />
        <dc:title />
      </cc:Work>
    </rdf:RDF>
  </metadata>
  <g
     inkscape:label="Layer 1"
     inkscape:groupmode="layer"
     id="layer1">
    <path
       id="path877"
       style="fill:#e6e6e6;stroke:none;stroke-width:0.814106"
       d="M 453.88086 162.56641 C 452.81329 162.56288 451.74759 162.57026 450.68945 162.58398 C 445.61039 162.64984 440.70811 162.875 436.64062 162.875 L 355.85938 162.875 L 82.439453 162.875 L 81.025391 1013.041 L 701.17969 1013.041 C 701.17969 881.99786 702.29297 736.82494 702.29297 605.71094 L 702.29297 493.93555 C 702.29297 474.62133 704.87037 452.50443 698.05664 434.20898 C 695.10029 426.27035 688.2072 419.85425 682.9043 413.73047 C 675.45829 405.1331 668.33666 396.1548 661.16406 387.2793 C 632.69972 352.05707 603.71776 317.33809 575.03516 282.33008 C 551.72462 253.87927 528.76894 225.00906 505.01562 197.00391 C 495.66115 185.97495 487.89295 170.68139 474.51172 165.35352 C 468.91214 163.124 461.35386 162.59112 453.88086 162.56641 z M 438.10742 210.44531 C 444.53791 210.42397 450.78976 211.01273 456.06055 213.17383 C 464.77969 216.74903 470.2387 224.72233 476.32227 231.98828 C 487.39655 245.21708 498.48272 258.51888 509.20898 272.08984 C 542.08921 313.68754 576.43812 354.00806 609.99023 394.95898 C 623.88956 411.92332 645.87629 430.59455 651.98242 452.98047 C 654.61562 462.63244 653.35742 473.72959 653.35742 483.69727 L 653.35742 540.86523 L 653.35742 728.58008 L 653.35742 902.64258 L 653.35742 945.30469 C 653.35742 948.6648 654.77718 957.46799 652.11133 959.78711 C 649.95038 961.66682 645.06747 960.66406 642.48242 960.66406 L 616.84961 960.66406 L 517.42383 960.66406 C 388.49114 960.66406 259.46275 959.81055 130.59766 959.81055 L 130.59766 406.05078 L 130.59766 263.55859 L 130.59766 226.86719 C 130.59766 223.34735 129.56872 216.68713 131.6582 213.78906 C 133.7003 210.95653 140.86193 211.50977 143.80273 211.50977 L 179.53516 211.50977 L 324.78906 211.50977 L 414.11523 211.50977 C 421.27559 211.50977 429.83965 210.47276 438.10742 210.44531 z M 180.31055 289.15625 L 180.31055 584.38086 L 590.43945 584.38086 L 590.43945 529.77148 L 390.03516 529.77148 L 390.03516 289.15625 L 180.31055 289.15625 z M 452.17578 314.75391 L 452.17578 417.14258 L 452.17578 441.88672 L 453.42188 451.25 L 461.49805 452.12695 L 483.24805 452.12695 L 565.58398 452.12695 C 560.40766 439.93484 547.46727 428.89321 539.30273 418.84961 C 520.4935 395.71115 501.65317 372.57019 482.53711 349.73633 C 473.87549 339.39067 463.79609 320.72325 452.17578 314.75391 z M 427.60742 540.95117 L 540.90234 540.95117 L 540.90234 568.54492 L 427.60742 568.54492 L 427.60742 540.95117 z M 219.00977 541.11914 L 332.30469 541.11914 L 332.30469 568.71289 L 219.00977 568.71289 L 219.00977 541.11914 z M 376.05469 641.54883 C 376.05469 650.04377 377.91579 661.6026 375.51172 669.70508 C 371.38869 683.59942 361.20333 697.85091 353.94141 710.07031 C 350.31317 716.17618 343.57725 727.92233 337.14258 730.66211 C 331.27338 733.16041 321.73291 732.8457 315.4668 732.8457 L 229.24609 732.8457 C 225.05315 732.8457 217.66299 734.39626 213.96484 731.96875 C 209.36177 728.9474 206.01321 720.58847 203.0957 715.78125 C 195.8198 703.79221 188.42438 691.89081 181.08789 679.94531 L 180.31055 679.94531 L 180.31055 883.01758 L 590.43945 883.01758 L 590.43945 679.94531 L 589.66211 679.94531 C 581.97841 692.45653 574.44748 705.11702 566.57812 717.48828 C 563.89989 721.69909 560.83983 729.29723 556.78516 731.96875 C 553.09709 734.40054 545.68985 732.8457 541.50391 732.8457 L 454.50781 732.8457 C 448.4219 732.8457 438.69437 734.13722 433.05664 731.53906 C 427.25971 728.86667 420.11202 716.42151 416.7168 710.70898 C 409.70347 698.90851 398.63382 683.21799 395.0918 669.70508 C 392.92465 661.43619 394.69727 650.14276 394.69727 641.54883 L 376.05469 641.54883 z "
       transform="scale(0.26458333)" />
  </g>
</svg>
